<?xml version="1.0" encoding="UTF-8" standalone="no"?>
<!-- Created with Inkscape (http://www.inkscape.org/) -->

<svg
   xmlns:dc="http://purl.org/dc/elements/1.1/"
   xmlns:cc="http://creativecommons.org/ns#"
   xmlns:rdf="http://www.w3.org/1999/02/22-rdf-syntax-ns#"
   xmlns:svg="http://www.w3.org/2000/svg"
   xmlns="http://www.w3.org/2000/svg"
   xmlns:xlink="http://www.w3.org/1999/xlink"
   xmlns:sodipodi="http://sodipodi.sourceforge.net/DTD/sodipodi-0.dtd"
   xmlns:inkscape="http://www.inkscape.org/namespaces/inkscape"
   id="svg2"
   version="1.1"
   inkscape:version="0.91 r13725"
   xml:space="preserve"
   width="700"
   height="700"
   viewBox="0 0 700 700"
   sodipodi:docname="Logo Shrewsbury Town FC 2015.svg"><metadata
     id="metadata8"><rdf:RDF><cc:Work
         rdf:about=""><dc:format>image/svg+xml</dc:format><dc:type
           rdf:resource="http://purl.org/dc/dcmitype/StillImage" /><dc:title></dc:title></cc:Work></rdf:RDF></metadata><defs
     id="defs6" /><sodipodi:namedview
     pagecolor="#ffffff"
     bordercolor="#666666"
     borderopacity="1"
     objecttolerance="10"
     gridtolerance="10"
     guidetolerance="10"
     inkscape:pageopacity="0"
     inkscape:pageshadow="2"
     inkscape:window-width="1440"
     inkscape:window-height="788"
     id="namedview4"
     showgrid="false"
     inkscape:zoom="0.54928307"
     inkscape:cx="171.71316"
     inkscape:cy="399.77109"
     inkscape:window-x="0"
     inkscape:window-y="1"
     inkscape:window-maximized="1"
     inkscape:current-layer="g10" /><g
     id="g10"
     inkscape:groupmode="layer"
     inkscape:label="Logo Shrewsbury Town FC 2015"
     transform="matrix(1.25,0,0,-1.25,0,700.00003)"><g
       id="g5614"><g
         id="g5608"><circle
           style="opacity:1;fill:#f7a800;fill-opacity:1;fill-rule:evenodd;stroke:none;stroke-width:1;stroke-linecap:round;stroke-linejoin:round;stroke-miterlimit:4;stroke-dasharray:none;stroke-dashoffset:0;stroke-opacity:1"
           id="path5486"
           cx="280"
           cy="-280.00003"
           r="280"
           transform="scale(1,-1)" /><circle
           transform="scale(1,-1)"
           r="274"
           cy="-280.00003"
           cx="280"
           id="circle5492"
           style="opacity:1;fill:#0d223f;fill-opacity:1;fill-rule:evenodd;stroke:none;stroke-width:1;stroke-linecap:round;stroke-linejoin:round;stroke-miterlimit:4;stroke-dasharray:none;stroke-dashoffset:0;stroke-opacity:1" /><circle
           transform="scale(1,-1)"
           r="200"
           cy="-279.99557"
           cx="280.00446"
           id="circle5500"
           style="opacity:1;fill:#f7a800;fill-opacity:1;fill-rule:evenodd;stroke:none;stroke-width:1;stroke-linecap:round;stroke-linejoin:round;stroke-miterlimit:4;stroke-dasharray:none;stroke-dashoffset:0;stroke-opacity:1" /><circle
           style="opacity:1;fill:#0054a4;fill-opacity:1;fill-rule:evenodd;stroke:none;stroke-width:1;stroke-linecap:round;stroke-linejoin:round;stroke-miterlimit:4;stroke-dasharray:none;stroke-dashoffset:0;stroke-opacity:1"
           id="circle5606"
           cx="280.00446"
           cy="-279.99557"
           r="194"
           transform="scale(1,-1)" /></g><g
         id="g5435"><g
           id="g5213"><path
             d="m 240.40743,433.29324 0,-33.6631 -7.99472,0 0,24.5811 c -1.45277,-0.56149 -3.85029,-0.93582 -7.20594,-1.13636 l 0,5.32977 c 4.47419,0.13369 7.45104,1.76025 8.93056,4.88859 l 6.2701,0 z"
             style="fill:#f7a800;fill-opacity:1;fill-rule:nonzero;stroke:none"
             id="path324"
             inkscape:connector-curvature="0" /><path
             d="m 266.22315,423.96169 c 0,1.38146 -0.27184,2.41087 -0.81551,3.08378 -0.54368,0.67736 -1.35474,1.01159 -2.44209,1.01159 -1.08735,0 -1.90287,-0.33423 -2.44209,-1.01159 -0.54368,-0.67291 -0.81551,-1.70232 -0.81551,-3.08378 0,-1.38146 0.27183,-2.41979 0.81551,-3.11052 0.53922,-0.69073 1.35474,-1.03386 2.44209,-1.03386 1.08735,0 1.89841,0.34313 2.44209,1.03386 0.54367,0.69073 0.81551,1.72906 0.81551,3.11052 m 0.73976,-14.26471 c 0,1.6132 -0.32977,2.81195 -0.98486,3.60517 -0.65954,0.78877 -1.66222,1.18093 -3.0125,1.18093 -1.31463,0 -2.31285,-0.39216 -2.98577,-1.18093 -0.67736,-0.79322 -1.01159,-1.99197 -1.01159,-3.60517 0,-1.61319 0.33423,-2.82085 1.01159,-3.62745 0.67292,-0.80659 1.67114,-1.20766 2.98577,-1.20766 1.35028,0 2.35296,0.40107 3.0125,1.20766 0.65509,0.8066 0.98486,2.01426 0.98486,3.62745 m 7.99471,-0.39661 c 0,-3.5205 -1.14974,-6.16756 -3.45368,-7.94563 -2.07221,-1.61319 -4.91982,-2.41533 -8.53839,-2.41533 -3.61857,0 -6.46618,0.80214 -8.53839,2.41533 -2.30394,1.77807 -3.45369,4.42513 -3.45369,7.94563 0,1.94296 0.54814,3.623 1.65332,5.03565 1.10072,1.41711 2.58914,2.37077 4.46527,2.86542 -1.44832,0.62389 -2.60697,1.62656 -3.48042,3.00802 -0.87345,1.38146 -1.31017,2.89662 -1.31017,4.541 0,3.09269 0.92247,5.40553 2.7674,6.93405 1.84048,1.53297 4.60343,2.29946 8.29329,2.29946 3.05707,0 5.4947,-0.72638 7.30398,-2.17469 1.97417,-1.61319 2.95903,-3.96613 2.95903,-7.05882 0,-1.64438 -0.43672,-3.15954 -1.30571,-4.541 -0.87345,-1.38146 -2.03211,-2.41533 -3.48042,-3.11051 1.87612,-0.42781 3.36455,-1.34582 4.46973,-2.76293 1.10072,-1.41265 1.64885,-3.09269 1.64885,-5.03565"
             style="fill:#f7a800;fill-opacity:1;fill-rule:nonzero;stroke:none"
             id="path328"
             inkscape:connector-curvature="0" /><path
             d="m 293.66543,423.96169 c 0,1.38146 -0.27184,2.41087 -0.81551,3.08378 -0.54368,0.67736 -1.35474,1.01159 -2.44209,1.01159 -1.0829,0 -1.89841,-0.33423 -2.44209,-1.01159 -0.54368,-0.67291 -0.81551,-1.70232 -0.81551,-3.08378 0,-1.38146 0.27183,-2.41979 0.81551,-3.11052 0.54368,-0.69073 1.35919,-1.03386 2.44209,-1.03386 1.08735,0 1.89841,0.34313 2.44209,1.03386 0.54367,0.69073 0.81551,1.72906 0.81551,3.11052 m 0.73976,-14.26471 c 0,1.6132 -0.32977,2.81195 -0.98486,3.60517 -0.65954,0.78877 -1.66222,1.18093 -3.0125,1.18093 -1.31463,0 -2.31285,-0.39216 -2.98577,-1.18093 -0.67291,-0.79322 -1.01159,-1.99197 -1.01159,-3.60517 0,-1.61319 0.33868,-2.82085 1.01159,-3.62745 0.67292,-0.80659 1.67114,-1.20766 2.98577,-1.20766 1.35028,0 2.35296,0.40107 3.0125,1.20766 0.65509,0.8066 0.98486,2.01426 0.98486,3.62745 m 7.99917,-0.39661 c 0,-3.5205 -1.1542,-6.16756 -3.45814,-7.94563 -2.07221,-1.61319 -4.91982,-2.41533 -8.53839,-2.41533 -3.61857,0 -6.46618,0.80214 -8.53839,2.41533 -2.30394,1.77807 -3.45369,4.42513 -3.45369,7.94563 0,1.94296 0.54814,3.623 1.65332,5.03565 1.10072,1.41711 2.58914,2.37077 4.46527,2.86542 -1.44832,0.62389 -2.60697,1.62656 -3.48042,3.00802 -0.87345,1.38146 -1.30571,2.89662 -1.30571,4.541 0,3.09269 0.91801,5.40553 2.76294,6.93405 1.84048,1.53297 4.60788,2.29946 8.29329,2.29946 3.05707,0 5.4947,-0.72638 7.30398,-2.17469 1.97417,-1.61319 2.96349,-3.96613 2.96349,-7.05882 0,-1.64438 -0.44118,-3.15954 -1.31017,-4.541 -0.869,-1.38146 -2.03211,-2.41533 -3.48042,-3.11051 1.87612,-0.42781 3.36455,-1.34582 4.46973,-2.76293 1.10072,-1.41265 1.65331,-3.09269 1.65331,-5.03565"
             style="fill:#f7a800;fill-opacity:1;fill-rule:nonzero;stroke:none"
             id="path332"
             inkscape:connector-curvature="0" /><path
             d="m 322.49365,410.39217 c 0,1.41266 -0.32977,2.54902 -0.98486,3.40463 -0.72638,0.98931 -1.74689,1.48396 -3.06597,1.48396 -1.18094,0 -2.14352,-0.43672 -2.88327,-1.31016 -0.74421,-0.87344 -1.11409,-2.06773 -1.11409,-3.57843 0,-1.74242 0.33868,-3.05258 1.01159,-3.92157 0.67737,-0.87344 1.67114,-1.31016 2.98577,-1.31016 1.35027,0 2.36187,0.43672 3.03924,1.31016 0.67291,0.86899 1.01159,2.17915 1.01159,3.92157 m 7.00986,14.31372 -7.90113,-0.78877 c -0.32532,2.56685 -1.36365,3.85027 -3.10609,3.85027 -1.84493,0 -3.14173,-1.00713 -3.89932,-3.01248 -0.59269,-1.54634 -0.94029,-3.89928 -1.03833,-7.05882 l 0.15152,0 c 0.75312,1.18538 1.72461,2.06774 2.91,2.6426 1.1854,0.57487 2.56687,0.86453 4.14442,0.86453 2.59806,0 4.75494,-0.82442 6.46618,-2.4688 1.97417,-1.90731 2.96349,-4.59002 2.96349,-8.04813 0,-3.5205 -1.10518,-6.35918 -3.30663,-8.51159 -2.2059,-2.15686 -5.06688,-3.23529 -8.59186,-3.23529 -3.58292,0 -6.43054,1.11854 -8.5384,3.36007 -2.59806,2.76292 -3.89931,7.07219 -3.89931,12.92781 0,6.25222 1.08735,10.94474 3.2576,14.06862 2.17025,3.12834 5.41448,4.68806 9.72378,4.68806 6.08739,0 9.63912,-3.09269 10.66408,-9.27808"
             style="fill:#f7a800;fill-opacity:1;fill-rule:nonzero;stroke:none"
             id="path336"
             inkscape:connector-curvature="0" /></g><g
           id="g5219"><path
             d="m 65.245615,218.11499 -6.292385,4.00624 c 2.901092,3.27986 4.050834,6.27451 3.444769,8.97504 -0.258469,1.1631 -0.846709,2.15241 -1.76472,2.95455 -1.172024,1.03832 -2.557953,1.377 -4.153331,1.0205 -1.942974,-0.43672 -2.945656,-1.7246 -2.994676,-3.85918 l -0.14706,-5.92692 c -0.124778,-5.45009 -3.360098,-8.88146 -9.705959,-10.29857 -4.70592,-1.05615 -8.5785,-0.73975 -11.613284,0.94028 -2.660448,1.47505 -4.340497,3.77897 -5.044603,6.91622 -1.082896,4.83066 0.695193,9.3984 5.329811,13.70321 l 6.840518,-3.82798 c -3.106086,-2.66489 -4.327129,-5.47683 -3.663131,-8.44029 0.200536,-0.88681 0.757582,-1.63993 1.671136,-2.25936 1.016051,-0.7041 2.147967,-0.918 3.391293,-0.63725 2.023189,0.45009 3.065978,2.00089 3.128367,4.64349 l 0.06239,2.72282 c 0.08467,3.28877 0.713018,5.85561 1.889498,7.7139 1.515164,2.3574 4.104311,3.94385 7.758529,4.76827 5.565998,1.24332 9.915408,0.71747 13.043775,-1.58199 2.299484,-1.68895 3.819104,-4.17558 4.554404,-7.46435 1.065071,-4.75045 -0.846709,-9.44296 -5.73534,-14.06863"
             style="fill:#ffffff;fill-opacity:1;fill-rule:nonzero;stroke:none"
             id="path340"
             inkscape:connector-curvature="0" /><path
             d="m 66.127975,250.2674 -42.451318,-3.4492 -0.561502,6.8984 15.263045,1.23886 -0.83334,10.26292 -15.263044,-1.23886 -0.561502,6.8984 42.451317,3.44919 0.561502,-6.89394 -17.887842,-1.45721 0.837796,-10.26293 17.883386,1.45277 0.561502,-6.8984 z"
             style="fill:#ffffff;fill-opacity:1;fill-rule:nonzero;stroke:none"
             id="path344"
             inkscape:connector-curvature="0" /><path
             d="m 29.924478,290.66401 11.466223,-0.68627 0.374335,6.32798 c 0.07576,1.23886 -0.347597,2.19251 -1.265608,2.85651 -0.918011,0.66845 -2.335134,1.05615 -4.246914,1.16755 -1.907324,0.11587 -3.360098,-0.10249 -4.353867,-0.65508 -0.989313,-0.54812 -1.524076,-1.44385 -1.595378,-2.68716 l -0.378791,-6.32353 z m 34.224871,-8.97059 -42.518163,2.53565 0.824427,13.81016 c 0.19608,3.33779 1.510707,5.77095 3.939425,7.29947 2.428718,1.52852 5.971527,2.15686 10.628427,1.87611 2.749576,-0.16043 5.115905,-0.82442 7.103443,-1.97861 1.987538,-1.15864 3.328904,-2.62478 4.024096,-4.40731 l 17.455576,5.32532 -0.463462,-7.71836 -15.610641,-4.53209 -0.258469,-4.39394 15.285326,-0.90909 -0.409985,-6.90731 z"
             style="fill:#ffffff;fill-opacity:1;fill-rule:nonzero;stroke:none"
             id="path348"
             inkscape:connector-curvature="0" /><path
             d="m 70.611076,332.74957 -4.104311,-21.14082 -41.814057,8.12389 3.885948,19.99554 8.106125,-1.57754 -2.566865,-13.19964 7.633751,-1.48396 2.393067,12.32175 8.106125,-1.56863 -2.397524,-12.3262 9.866389,-1.91623 2.789683,14.34492 8.101669,-1.57308 z"
             style="fill:#ffffff;fill-opacity:1;fill-rule:nonzero;stroke:none"
             id="path352"
             inkscape:connector-curvature="0" /><path
             d="m 73.382934,342.81196 -42.482512,7.84314 2.375241,6.49287 29.995782,-6.45722 -26.871871,15 2.174705,5.94919 30.303272,-5.61942 -27.125884,14.30926 2.33959,6.39038 37.540406,-21.35027 -2.468826,-6.75134 -29.082227,5.29858 25.677566,-14.60784 -2.375242,-6.49733 z"
             style="fill:#ffffff;fill-opacity:1;fill-rule:nonzero;stroke:none"
             id="path356"
             inkscape:connector-curvature="0" /><path
             d="m 78.984583,377.65599 -1.996451,7.18806 c 4.353867,0.49465 7.20594,1.95187 8.565131,4.3672 0.583783,1.03832 0.806601,2.16577 0.663998,3.37344 -0.178255,1.55526 -0.975944,2.73618 -2.40198,3.53832 -1.737982,0.97594 -3.342273,0.68628 -4.808416,-0.86453 l -4.073116,-4.30926 c -3.738889,-3.96168 -8.440353,-4.34938 -14.108847,-1.15865 -4.202351,2.36631 -6.871712,5.18717 -7.999172,8.46702 -0.989313,2.87879 -0.699649,5.71302 0.877903,8.51605 2.424262,4.31372 6.800411,6.5196 13.123991,6.61764 l 2.526758,-7.41978 c -4.090942,0.098 -6.880625,-1.17647 -8.369051,-3.82353 -0.445636,-0.78877 -0.534763,-1.7246 -0.271838,-2.79858 0.285207,-1.19875 0.984856,-2.1123 2.098947,-2.74064 1.804827,-1.01604 3.618567,-0.5615 5.432307,1.35918 l 1.867216,1.98307 c 2.259377,2.38413 4.447451,3.877 6.564224,4.46969 2.705012,0.7353 5.686319,0.18717 8.95729,-1.64884 4.968845,-2.79857 7.847656,-6.09625 8.636432,-9.90196 0.579328,-2.79411 0.04456,-5.65508 -1.608747,-8.5918 -2.388611,-4.24688 -6.94747,-6.45276 -13.676579,-6.6221"
             style="fill:#ffffff;fill-opacity:1;fill-rule:nonzero;stroke:none"
             id="path360"
             inkscape:connector-curvature="0" /><path
             d="m 90.891986,417.08557 8.012541,-6.06506 3.400203,4.49198 c 0.9403,1.23886 1.31017,2.42424 1.10964,3.54723 -0.19608,1.12745 -0.94921,2.1836 -2.25047,3.16845 -1.430489,1.08289 -2.615882,1.66221 -3.560631,1.74243 -0.940292,0.0802 -1.791458,-0.3877 -2.557952,-1.39929 l -4.153331,-5.48574 z m -13.400285,10.04902 7.05888,-5.34314 3.471507,4.58556 c 0.7353,0.97148 0.989313,1.91622 0.757582,2.83423 -0.227275,0.92246 -0.93138,1.82709 -2.10786,2.71836 -1.363647,1.03387 -2.504476,1.51069 -3.422487,1.42157 -0.775407,-0.0936 -1.537446,-0.64171 -2.286115,-1.63102 l -3.471507,-4.58556 z m 23.672199,-26.21212 -33.957485,25.70855 8.164057,10.78432 c 1.893955,2.5 4.033009,3.82353 6.417164,3.96613 2.384154,0.1426 5.040147,-0.89127 7.963521,-3.10606 2.005363,-1.51515 3.369011,-3.15063 4.095398,-4.90196 0.721931,-1.75134 0.78432,-3.61854 0.182711,-5.60161 1.412667,1.47059 3.097172,2.20589 5.057972,2.21926 2.165792,0.0178 4.438542,-0.87344 6.822692,-2.67826 3.21304,-2.43315 5.06243,-5.00891 5.54817,-7.73618 0.4902,-2.72282 -0.40998,-5.59715 -2.69164,-8.61408 l -7.60256,-10.04011 z"
             style="fill:#ffffff;fill-opacity:1;fill-rule:nonzero;stroke:none"
             id="path364"
             inkscape:connector-curvature="0" /><path
             d="m 106.24861,471.27898 19.57235,-19.67914 c 3.77008,-3.78788 5.76208,-7.62924 5.98044,-11.51961 0.19162,-3.23975 -0.8066,-5.9492 -2.99468,-8.12389 -2.16579,-2.15686 -4.8708,-3.13279 -8.11058,-2.92335 -3.89041,0.23619 -7.71842,2.25045 -11.4885,6.03833 l -19.576809,19.67914 4.906456,4.87968 18.944003,-19.04189 c 1.93852,-1.95187 3.68541,-3.13725 5.24068,-3.56061 1.55082,-0.4278 2.88772,-0.0802 4.01073,1.03387 1.13637,1.13637 1.50179,2.47772 1.08735,4.03744 -0.41444,1.55525 -1.59538,3.30659 -3.5339,5.25846 l -18.944,19.04189 4.90646,4.87968 z"
             style="fill:#ffffff;fill-opacity:1;fill-rule:nonzero;stroke:none"
             id="path368"
             inkscape:connector-curvature="0" /><path
             d="m 126.62756,477.8075 6.88063,-9.19786 5.07579,3.79679 c 0.99377,0.74866 1.44832,1.68449 1.36365,2.8164 -0.0891,1.13191 -0.70411,2.46435 -1.84939,3.99733 -1.14974,1.52852 -2.25046,2.49554 -3.31108,2.89661 -1.06507,0.40552 -2.09003,0.23173 -3.08826,-0.51248 l -5.07134,-3.79679 z m 15.24968,-31.92513 -25.5216,34.09982 11.07852,8.29322 c 2.67828,2.0009 5.38329,2.57131 8.1195,1.70232 2.7362,-0.86453 5.5036,-3.16399 8.29774,-6.90285 1.64886,-2.20143 2.67382,-4.4385 3.0749,-6.70232 0.40107,-2.26381 0.1426,-4.23797 -0.7665,-5.91354 l 15.3388,-9.8886 -6.19434,-4.63903 -13.53843,8.99732 -3.52499,-2.63814 9.17566,-12.25936 -5.53926,-4.14884 z"
             style="fill:#ffffff;fill-opacity:1;fill-rule:nonzero;stroke:none"
             id="path372"
             inkscape:connector-curvature="0" /><path
             d="m 171.91759,466.56864 -9.69705,17.33066 -20.27199,14.70588 7.05442,3.94831 12.32184,-9.96881 -2.04547,15.71747 7.05443,3.94831 1.92515,-24.97326 9.69704,-17.33066 -6.03837,-3.3779 z"
             style="fill:#ffffff;fill-opacity:1;fill-rule:nonzero;stroke:none"
             id="path376"
             inkscape:connector-curvature="0" /><path
             d="m 190.22878,513.51605 -2.62925,7.82531 20.26308,6.80927 2.62925,-7.82531 -6.85388,-2.30392 10.94037,-32.54902 -6.55977,-2.20143 -10.93591,32.54902 -6.85389,-2.30392 z"
             style="fill:#ffffff;fill-opacity:1;fill-rule:nonzero;stroke:none"
             id="path380"
             inkscape:connector-curvature="0" /><path
             d="m 241.8201,513.89484 c -0.71302,3.68093 -1.8182,6.61319 -3.32445,8.80125 -1.78254,2.5401 -3.84584,3.58288 -6.18543,3.1328 -2.11232,-0.40999 -3.56509,-1.76471 -4.35832,-4.07309 -0.88682,-2.52674 -0.89573,-6.03832 -0.0267,-10.54367 0.69519,-3.60071 1.76918,-6.4795 3.21304,-8.64082 1.7558,-2.66488 3.85475,-3.76114 6.29684,-3.29323 2.33959,0.45455 3.86367,2.21034 4.56331,5.27184 0.58379,2.58913 0.5214,5.7041 -0.17825,9.34492 m 6.7915,1.31016 c 1.18985,-6.14528 0.97149,-11.52852 -0.64172,-16.14528 -1.72015,-4.92424 -4.66135,-7.7852 -8.83251,-8.5918 -4.17561,-0.80213 -7.97243,0.75758 -11.39492,4.68806 -3.22195,3.68093 -5.41894,8.59626 -6.60879,14.74599 -1.18539,6.14528 -0.97149,11.52852 0.64617,16.14973 1.7157,4.91979 4.6569,7.78075 8.83252,8.58735 4.17115,0.80659 7.96797,-0.75758 11.39492,-4.6836 3.21749,-3.68539 5.41894,-8.60072 6.60433,-14.75045"
             style="fill:#ffffff;fill-opacity:1;fill-rule:nonzero;stroke:none"
             id="path384"
             inkscape:connector-curvature="0" /><path
             d="m 263.5315,495.26293 -8.10613,42.43315 6.91628,0.14261 4.86189,-30.29412 4.23355,30.48128 6.33695,0.12924 5.75316,-30.2763 3.49379,30.46792 6.80041,0.13814 -6.27456,-42.72727 -7.18811,-0.14706 -5.61502,29.01961 -4.29593,-29.2246 -6.91628,-0.1426 z"
             style="fill:#ffffff;fill-opacity:1;fill-rule:nonzero;stroke:none"
             id="path388"
             inkscape:connector-curvature="0" /><path
             d="m 299.5612,495.00001 6.10076,42.1524 6.92519,-1.00267 6.14087,-28.39126 3.89932,26.9385 6.22999,-0.90464 -6.10076,-42.1524 -6.84943,0.99376 -6.27456,27.98574 -3.84138,-26.52406 -6.23,0.90463 z"
             style="fill:#ffffff;fill-opacity:1;fill-rule:nonzero;stroke:none"
             id="path392"
             inkscape:connector-curvature="0" /><path
             d="m 342.22643,486.66222 14.0732,40.20053 19.95559,-6.98752 -2.72729,-7.78966 -13.42703,4.69697 -2.96348,-8.46702 12.43771,-4.35384 -2.73175,-7.78966 -12.43325,4.35384 -5.65513,-16.14974 -6.52857,2.2861 z"
             style="fill:#ffffff;fill-opacity:1;fill-rule:nonzero;stroke:none"
             id="path396"
             inkscape:connector-curvature="0" /><path
             d="m 394.53522,487.48664 c 1.7157,3.33333 2.65599,6.32353 2.82533,8.97504 0.16489,3.09715 -0.81105,5.19163 -2.92783,6.28343 -1.91178,0.98484 -3.89486,0.8155 -5.94479,-0.50802 -2.25937,-1.4394 -4.43408,-4.19787 -6.53302,-8.27541 -1.6756,-3.26203 -2.61589,-6.18984 -2.81197,-8.77896 -0.26738,-3.18182 0.70411,-5.34314 2.91892,-6.4795 2.11677,-1.0918 4.39843,-0.65063 6.84052,1.32353 2.05884,1.67558 3.93497,4.16221 5.63284,7.45989 m 6.15424,-3.16399 c -2.86544,-5.57041 -6.36369,-9.67023 -10.48583,-12.29947 -4.38951,-2.81194 -8.47154,-3.2442 -12.25054,-1.30125 -3.77899,1.94742 -5.80218,5.52139 -6.06511,10.72639 -0.25401,4.88413 1.0517,10.1114 3.91269,15.67736 2.86544,5.56595 6.35923,9.66577 10.48136,12.29946 4.39398,2.80749 8.47601,3.24421 12.255,1.29679 3.779,-1.94296 5.80219,-5.51693 6.06511,-10.72192 0.25402,-4.88414 -1.0517,-10.11141 -3.91268,-15.67736"
             style="fill:#ffffff;fill-opacity:1;fill-rule:nonzero;stroke:none"
             id="path400"
             inkscape:connector-curvature="0" /><path
             d="m 424.69589,467.66044 c 2.20144,3.03476 3.58737,5.8467 4.15779,8.44028 0.6328,3.03922 -0.0134,5.25847 -1.94298,6.65776 -1.74244,1.26114 -3.72552,1.39483 -5.94924,0.40107 -2.451,-1.08289 -5.02232,-3.48039 -7.71397,-7.18806 -2.15688,-2.97237 -3.52944,-5.72192 -4.11768,-8.25312 -0.74421,-3.1016 -0.11141,-5.38324 1.90287,-6.84492 1.92515,-1.39928 4.24691,-1.31016 6.96084,0.26738 2.29057,1.34581 4.52321,3.51605 6.70237,6.51961 m 5.59719,-4.06417 c -3.6765,-5.06685 -7.74961,-8.58734 -12.22826,-10.5615 -4.76385,-2.1123 -8.86371,-1.92068 -12.30402,0.57487 -3.44031,2.49554 -4.89754,6.3369 -4.36723,11.51961 0.4902,4.87076 2.57577,9.83511 6.25227,14.90196 3.6765,5.06684 7.74962,8.5918 12.22826,10.56595 4.76386,2.1123 8.86371,1.91622 12.30848,-0.57932 3.43586,-2.49555 4.89309,-6.33245 4.36278,-11.51961 -0.4902,-4.86631 -2.57132,-9.83512 -6.25228,-14.90196"
             style="fill:#ffffff;fill-opacity:1;fill-rule:nonzero;stroke:none"
             id="path404"
             inkscape:connector-curvature="0" /><path
             d="m 444.29497,468.59627 5.68632,5.98485 15.49923,-14.71925 -5.68186,-5.98485 -5.24514,4.97772 -23.64101,-24.90196 -5.01786,4.76381 23.64546,24.90196 -5.24514,4.97772 z"
             style="fill:#ffffff;fill-opacity:1;fill-rule:nonzero;stroke:none"
             id="path408"
             inkscape:connector-curvature="0" /><path
             d="m 470.69001,442.13905 -6.84943,-5.61052 3.6453,-4.44741 c 0.77096,-0.94474 1.63103,-1.41266 2.58024,-1.40375 0.9492,0.004 1.99199,0.47683 3.13282,1.4082 1.328,1.08735 2.05439,2.08557 2.18808,2.99911 0.0847,0.7754 -0.26738,1.63993 -1.0517,2.6025 l -3.64531,4.45187 z m -12.91008,-10.67291 -7.77636,-6.36809 3.574,-4.35829 c 0.98486,-1.2032 2.04548,-1.84046 3.1863,-1.91176 1.14083,-0.0713 2.34405,0.40998 3.60966,1.44831 1.38593,1.13636 2.23264,2.1524 2.52676,3.04812 0.29857,0.89573 0.0446,1.83601 -0.75759,2.82086 l -4.36277,5.32085 z m -18.11958,-6.19875 32.95035,26.98752 8.56959,-10.46345 c 1.98754,-2.4287 2.77186,-4.81729 2.35296,-7.17023 -0.4189,-2.35295 -2.04547,-4.68806 -4.88417,-7.01426 -1.94298,-1.59091 -3.85476,-2.53566 -5.72643,-2.82977 -1.87167,-0.29412 -3.70324,0.0847 -5.48579,1.1319 1.09627,-1.71568 1.41713,-3.52495 0.97149,-5.43226 -0.4902,-2.1123 -1.89395,-4.11319 -4.20681,-6.00713 -3.11499,-2.55348 -6.05619,-3.74777 -8.81914,-3.58289 -2.76294,0.16489 -5.34318,1.71123 -7.7407,4.63904 l -7.98135,9.74153 z"
             style="fill:#ffffff;fill-opacity:1;fill-rule:nonzero;stroke:none"
             id="path412"
             inkscape:connector-curvature="0" /><path
             d="m 474.80769,402.66935 3.70324,-6.07397 13.15073,12.21479 -16.85397,-6.14082 z m -17.82991,1.21212 41.68928,13.43137 3.72106,-6.10517 -30.92716,-31.09179 -3.86367,6.33689 5.00896,4.65687 -5.33427,8.75222 -6.45281,-2.28609 -3.84139,6.3057 z"
             style="fill:#ffffff;fill-opacity:1;fill-rule:nonzero;stroke:none"
             id="path416"
             inkscape:connector-curvature="0" /><path
             d="m 473.35492,375.74422 38.84166,17.47326 2.83871,-6.31016 -30.65978,-13.79233 4.43408,-9.8574 -8.18188,-3.67647 -7.27279,16.1631 z"
             style="fill:#ffffff;fill-opacity:1;fill-rule:nonzero;stroke:none"
             id="path420"
             inkscape:connector-curvature="0" /><path
             d="m 482.64644,354.11321 40.52617,13.10606 2.13014,-6.582 -31.98778,-10.34313 3.32445,-10.28521 -8.53839,-2.75846 -5.45459,16.86274 z"
             style="fill:#ffffff;fill-opacity:1;fill-rule:nonzero;stroke:none"
             id="path424"
             inkscape:connector-curvature="0" /><path
             d="m 527.78048,299.72373 -4.92874,4.92424 c 1.87613,0.71301 3.31999,1.68004 4.32713,2.89662 1.00714,1.21657 1.43049,2.42424 1.27452,3.63636 -0.26292,2.02763 -1.52408,3.49822 -3.77454,4.40285 -2.50448,1.00713 -6.00718,1.21658 -10.51702,0.62834 -3.63639,-0.47682 -6.57759,-1.37255 -8.81914,-2.68271 -2.7674,-1.59091 -3.9929,-3.61853 -3.66759,-6.08734 0.12924,-0.99822 0.81106,-1.99198 2.04547,-2.96346 1.22996,-0.97593 2.77186,-1.60428 4.62125,-1.88948 l -3.32444,-5.95811 c -3.47597,0.74866 -6.31021,1.9697 -8.50275,3.67201 -2.19253,1.69786 -3.44031,3.68984 -3.73888,5.97594 -0.55259,4.21568 1.23886,7.90998 5.36546,11.0918 3.87703,2.98574 8.91718,4.88859 15.12489,5.69964 6.24783,0.81551 11.59546,0.33868 16.05183,-1.43048 4.79059,-1.88057 7.45549,-4.87522 7.99025,-8.98841 0.65509,-4.98663 -2.5223,-9.29145 -9.5277,-12.92781"
             style="fill:#ffffff;fill-opacity:1;fill-rule:nonzero;stroke:none"
             id="path428"
             inkscape:connector-curvature="0" /><path
             d="m 495.42283,289.951 42.58501,0.69073 0.11141,-6.91622 -33.61435,-0.54813 0.17825,-10.80214 -8.97511,-0.1426 -0.28521,17.71836 z"
             style="fill:#ffffff;fill-opacity:1;fill-rule:nonzero;stroke:none"
             id="path432"
             inkscape:connector-curvature="0" /><path
             d="m 535.04436,238.16401 -27.57152,3.21747 c -5.30753,0.61943 -9.25587,2.38413 -11.84947,5.29412 -2.16579,2.41978 -3.07044,5.16042 -2.71393,8.22638 0.35651,3.03476 1.86722,5.47682 4.53213,7.33066 3.19075,2.23707 7.44212,3.04812 12.74965,2.4287 l 27.57152,-3.21747 -0.8066,-6.87612 -26.67579,3.11498 c -2.73175,0.32085 -4.83961,0.16488 -6.31912,-0.47683 -1.47952,-0.6328 -2.31286,-1.73797 -2.49557,-3.3066 -0.18271,-1.59536 0.36988,-2.87433 1.66223,-3.83244 1.29234,-0.95811 3.30662,-1.59982 6.03837,-1.92068 l 26.68025,-3.11051 -0.80215,-6.87166 z"
             style="fill:#ffffff;fill-opacity:1;fill-rule:nonzero;stroke:none"
             id="path436"
             inkscape:connector-curvature="0" /><path
             d="m 523.22162,220.65956 -8.56513,2.2549 -1.46169,-5.5615 c -0.31194,-1.17647 -0.18716,-2.14795 0.37434,-2.91443 0.5615,-0.76204 1.55527,-1.33245 2.9813,-1.71123 1.66223,-0.43227 2.89664,-0.44118 3.71215,-0.009 0.67737,0.38325 1.17648,1.17647 1.49289,2.37968 l 1.46614,5.5615 z m -16.21671,4.1934 -9.71932,2.56239 -1.43495,-5.45009 c -0.39662,-1.50623 -0.28967,-2.73618 0.32531,-3.7032 0.61052,-0.96703 1.70679,-1.65776 3.28434,-2.07665 1.73798,-0.45455 3.05261,-0.53922 3.95725,-0.25401 0.89573,0.2852 1.51071,1.04278 1.83157,2.26827 l 1.7558,6.65329 z m -15.65074,11.03833 41.18571,-10.85116 -3.44477,-13.08378 c -0.80215,-3.0303 -2.2772,-5.06684 -4.42517,-6.10517 -2.15243,-1.04278 -5.00004,-1.09625 -8.54731,-0.16043 -2.42871,0.63726 -4.31376,1.63102 -5.65067,2.97683 -1.3369,1.34136 -2.10786,3.04367 -2.30394,5.10695 -0.74866,-1.89394 -2.02318,-3.21747 -3.83247,-3.97504 -1.99645,-0.84225 -4.43854,-0.8779 -7.33072,-0.12032 -3.89486,1.02941 -6.5865,2.70945 -8.07493,5.04456 -1.48842,2.33512 -1.74689,5.32977 -0.78432,8.98841 l 3.20859,12.17915 z"
             style="fill:#ffffff;fill-opacity:1;fill-rule:nonzero;stroke:none"
             id="path440"
             inkscape:connector-curvature="0" /></g><g
           id="g5281"><path
             d="m 92.79931,101.90288 26.7872,27.22816 13.51615,-13.29768 -5.19166,-5.27629 -9.09544,8.94385 -5.64176,-5.7353 8.42253,-8.28431 -5.19166,-5.27629 -8.42253,8.28431 -10.762118,-10.935826 -4.420712,4.349376 z"
             style="fill:#f7a800;fill-opacity:1;fill-rule:nonzero;stroke:none"
             id="path44"
             inkscape:connector-curvature="0" /><path
             d="m 113.9091,82.112327 23.73905,29.919783 4.86189,-3.85472 -18.73901,-23.618539 7.58919,-6.020499 -5.00004,-6.305704 -12.45108,9.879679 z"
             style="fill:#f7a800;fill-opacity:1;fill-rule:nonzero;stroke:none"
             id="path48"
             inkscape:connector-curvature="0" /><path
             d="m 160.02801,72.976855 c 1.76472,2.860962 2.81642,5.467914 3.15065,7.825312 0.36542,2.758467 -0.36542,4.701425 -2.18362,5.819964 -1.63994,1.016042 -3.42694,1.002673 -5.34764,-0.04011 -2.12122,-1.127451 -4.25582,-3.440285 -6.41716,-6.942959 -1.72907,-2.798574 -2.7674,-5.35205 -3.12391,-7.651515 -0.459,-2.829768 0.25847,-4.826203 2.15688,-5.998217 1.8182,-1.122995 3.89041,-0.886809 6.21217,0.708556 1.95634,1.354724 3.80574,3.444742 5.55263,6.278966 m 5.28079,-3.257576 c -2.95011,-4.777183 -6.35923,-8.199643 -10.22735,-10.271835 -4.11768,-2.205882 -7.79864,-2.303922 -11.04287,-0.307487 -3.24423,2.000891 -4.80396,5.338681 -4.67918,10.008912 0.11141,4.385027 1.64439,8.970588 4.59005,13.747772 2.95011,4.777183 6.35923,8.199643 10.22735,10.267379 4.11768,2.205882 7.79864,2.312834 11.04287,0.307487 3.24424,-1.996435 4.80396,-5.334225 4.67918,-10.004456 -0.1114,-4.389483 -1.64439,-8.970588 -4.59005,-13.747772"
             style="fill:#f7a800;fill-opacity:1;fill-rule:nonzero;stroke:none"
             id="path52"
             inkscape:connector-curvature="0" /><path
             d="m 183.23675,74.40288 -4.22909,-9.393939 5.18275,-2.330659 c 1.01605,-0.459002 1.94743,-0.409983 2.7986,0.151515 0.85116,0.557041 1.62657,1.617647 2.33513,3.181818 0.70411,1.568627 0.98486,2.856506 0.8378,3.85918 -0.14706,1.00713 -0.72639,1.742424 -1.74244,2.196969 l -5.18275,2.335116 z m -18.43152,-25.82442 15.68194,34.830658 11.31471,-5.098039 c 2.73175,-1.229946 4.35387,-3.10606 4.86189,-5.628342 0.50803,-2.526737 -0.098,-5.695186 -1.81819,-9.509803 -1.0116,-2.250446 -2.32177,-4.024064 -3.9216,-5.320855 -1.60429,-1.296792 -3.26206,-1.951872 -4.97776,-1.969697 l -1.10072,-16.323529 -6.32804,2.847593 1.18094,14.527629 -3.59629,1.617647 -5.6373,-12.517825 -5.65958,2.544563 z"
             style="fill:#f7a800;fill-opacity:1;fill-rule:nonzero;stroke:none"
             id="path56"
             inkscape:connector-curvature="0" /><path
             d="m 212.87157,30.347623 -18.43152,5.757576 11.38601,36.457217 17.43329,-5.441176 -2.2059,-7.067736 -11.51078,3.5918 -2.08113,-6.657753 10.74875,-3.355615 -2.21035,-7.067736 -10.7443,3.360071 -2.68718,-8.605169 12.50901,-3.903743 -2.2059,-7.067736 z"
             style="fill:#f7a800;fill-opacity:1;fill-rule:nonzero;stroke:none"
             id="path60"
             inkscape:connector-curvature="0" /><path
             d="m 232.06512,39.505377 6.27456,-1.158645 -0.30303,16.091799 -5.97153,-14.933154 z m -11.47068,-11.194295 15.94487,35.89572 6.31021,-1.163102 2.29057,-39.260247 -6.5464,1.207664 -0.11586,6.127451 -9.04196,1.671123 -2.32623,-5.681818 -6.5152,1.203209 z"
             style="fill:#f7a800;fill-opacity:1;fill-rule:nonzero;stroke:none"
             id="path64"
             inkscape:connector-curvature="0" /><path
             d="m 252.41733,53.992898 0.57933,7.379679 19.10888,-1.49287 -0.57487,-7.379679 -6.46618,0.508022 -2.40198,-30.704099 -6.18543,0.48574 2.40198,30.699642 -6.46173,0.503565 z"
             style="fill:#f7a800;fill-opacity:1;fill-rule:nonzero;stroke:none"
             id="path68"
             inkscape:connector-curvature="0" /><path
             d="m 292.6271,28.489334 4.26474,5.155971 c 2.59806,-2.950089 5.12927,-4.304812 7.60701,-4.064171 1.06062,0.102496 2.00537,0.516934 2.82088,1.243316 1.05616,0.926916 1.51071,2.116755 1.37256,3.578431 -0.1738,1.778075 -1.20767,2.811943 -3.10163,3.097148 l -5.25851,0.784314 c -4.8307,0.721925 -7.5268,3.9795 -8.0883,9.786095 -0.41444,4.304813 0.29858,7.713904 2.1346,10.231729 1.60875,2.19697 3.84584,3.440285 6.71128,3.716577 4.42072,0.427808 8.28438,-1.66221 11.59992,-6.265597 l -4.16225,-5.659536 c -2.02764,3.057041 -4.39397,4.456328 -7.10344,4.197861 -0.81106,-0.08021 -1.54636,-0.494652 -2.19699,-1.234403 -0.73975,-0.828877 -1.0517,-1.813725 -0.94474,-2.950089 0.17825,-1.853832 1.4394,-2.950089 3.78345,-3.297682 l 2.4198,-0.360963 c 2.91446,-0.43672 5.12928,-1.287879 6.6489,-2.540107 1.9296,-1.61319 3.05706,-4.086452 3.38238,-7.437611 0.4902,-5.089126 -0.46346,-8.899287 -2.85653,-11.430481 -1.76027,-1.853832 -4.13996,-2.927807 -7.14801,-3.217468 -4.34941,-0.423352 -8.31112,1.800356 -11.88512,6.666666"
             style="fill:#f7a800;fill-opacity:1;fill-rule:nonzero;stroke:none"
             id="path72"
             inkscape:connector-curvature="0" /><path
             d="m 330.1987,39.964378 6.23,1.381462 -6.55977,14.696969 0.32977,-16.078431 z m -6.18989,-14.781639 0.67737,39.26916 6.26119,1.390375 17.42438,-35.25401 -6.50183,-1.44385 -2.49557,5.597148 -8.97511,-1.987522 0.0713,-6.14082 -6.46173,-1.430481 z"
             style="fill:#f7a800;fill-opacity:1;fill-rule:nonzero;stroke:none"
             id="path76"
             inkscape:connector-curvature="0" /><path
             d="m 357.44045,33.453684 -12.4689,36.105168 5.86457,2.023173 9.83965,-28.49376 9.16228,3.159536 2.6248,-7.606951 -15.0224,-5.187166 z"
             style="fill:#f7a800;fill-opacity:1;fill-rule:nonzero;stroke:none"
             id="path80"
             inkscape:connector-curvature="0" /><path
             d="m 389.86941,67.42427 c -1.46169,3.030303 -3.10163,5.311943 -4.91091,6.862745 -2.1346,1.786987 -4.16225,2.214795 -6.08294,1.283422 -1.73798,-0.842246 -2.68273,-2.357397 -2.8387,-4.536541 -0.18271,-2.393049 0.62389,-5.441177 2.41535,-9.139929 1.43495,-2.963458 3.03032,-5.209447 4.78167,-6.74688 2.1346,-1.907308 4.20681,-2.370766 6.21663,-1.399287 1.92069,0.935829 2.83425,2.807486 2.73621,5.619429 -0.0936,2.379679 -0.86454,5.062389 -2.31731,8.057041 m 5.58382,2.709447 c 2.451,-5.053475 3.50716,-9.76827 3.17293,-14.144384 -0.34759,-4.656863 -2.23709,-7.820855 -5.66403,-9.483066 -3.4314,-1.657754 -7.08117,-1.185383 -10.9582,1.426025 -3.64085,2.45098 -6.68455,6.203209 -9.13555,11.252228 -2.44654,5.053476 -3.50715,9.763814 -3.17293,14.139928 0.35206,4.661319 2.2371,7.825312 5.6685,9.487522 3.42694,1.657754 7.08116,1.185383 10.95819,-1.426025 3.6364,-2.45098 6.68455,-6.203208 9.13109,-11.252228"
             style="fill:#f7a800;fill-opacity:1;fill-rule:nonzero;stroke:none"
             id="path84"
             inkscape:connector-curvature="0" /><path
             d="m 401.2064,87.829795 6.40825,-9.78164 4.37169,2.865419 c 1.10964,0.721925 1.61321,1.76025 1.51071,3.101604 -0.0847,1.185384 -0.57487,2.46435 -1.47506,3.841355 -1.07844,1.648841 -2.16133,2.700535 -3.2576,3.159536 -1.09181,0.459002 -2.20144,0.320856 -3.3289,-0.418894 l -4.22909,-2.76738 z M 413.06478,58.404663 392.1377,90.352077 402.42744,97.0945 c 2.56687,1.680036 5.0758,2.040999 7.52234,1.078432 2.451,-0.958111 4.8619,-3.253119 7.23268,-6.871658 1.82266,-2.780748 2.79414,-5.476827 2.92338,-8.088235 0.16934,-3.520499 -1.33246,-6.319072 -4.50093,-8.395721 l -4.05083,-2.655972 6.7603,-10.320855 -5.2496,-3.435828 z"
             style="fill:#f7a800;fill-opacity:1;fill-rule:nonzero;stroke:none"
             id="path88"
             inkscape:connector-curvature="0" /><path
             d="m 438.91614,76.399315 -23.8772,29.812835 4.83962,3.87255 23.88165,-29.80838 -4.84407,-3.877005 z"
             style="fill:#f7a800;fill-opacity:1;fill-rule:nonzero;stroke:none"
             id="path92"
             inkscape:connector-curvature="0" /><path
             d="m 448.66221,102.04548 4.57223,4.45187 -13.3067,9.05526 8.73447,-13.50713 z m 2.50002,-15.828876 -20.067,33.765596 4.59451,4.47415 33.36033,-20.83333 -4.77276,-4.643494 -5.07134,3.449194 -6.58651,-6.408195 3.2888,-5.182709 -4.74603,-4.621212 z"
             style="fill:#f7a800;fill-opacity:1;fill-rule:nonzero;stroke:none"
             id="path96"
             inkscape:connector-curvature="0" /></g><path
           inkscape:connector-curvature="0"
           id="path444"
           style="fill:#f7a800;fill-opacity:1;fill-rule:evenodd;stroke:none"
           d="m 80.967665,161.5642 c 0,-4.91087 -3.983989,-8.89929 -8.899358,-8.89929 -4.919825,0 -8.899357,3.98842 -8.899357,8.89929 0,4.91533 3.979532,8.90374 8.899357,8.90374 4.915369,0 8.899358,-3.98841 8.899358,-8.90374" /><path
           inkscape:connector-curvature="0"
           id="path448"
           style="fill:#f7a800;fill-opacity:1;fill-rule:evenodd;stroke:none"
           d="m 492.57521,161.5642 c 0,-4.91087 -3.98399,-8.89929 -8.89936,-8.89929 -4.91537,0 -8.89936,3.98842 -8.89936,8.89929 0,4.91533 3.98399,8.90374 8.89936,8.90374 4.91537,0 8.89936,-3.98841 8.89936,-8.90374" /></g><g
         id="g5190"><g
           id="g5122"><path
             d="m 368.84874,279.74601 c -3.55172,-6.79144 0.76649,-14.33155 0,-22.91889 -0.64617,-7.25045 -6.73802,-12.82532 -5.08917,-19.51426 2.78523,-0.0446 3.24424,-2.41979 6.78259,-1.69786 10.49919,7.0098 3.96616,31.25668 5.10253,43.27985 -3.02141,0.65508 -3.08826,0.11587 -6.79595,0.85116 m 11.88066,-20.37879 0,-9.32709 c 3.55618,-0.43672 2.33068,3.89037 4.24246,5.08913 2.39753,-0.15598 1.06062,-4.03298 4.24692,-3.39573 0,13.05704 10.51701,30.19162 -3.3913,35.65063 -1.80928,-11.89394 8.44927,-25.71302 -5.09808,-28.01694 m 0,3.39572 c 8.29775,2.47327 1.05171,19.00624 0,25.46346 1.36365,-10.6016 0.90019,-18.11943 0,-25.46346 m -22.91016,2.54902 c 2.17471,-1.49287 3.42694,-3.9082 6.79595,-4.23796 1.328,6.13636 -3.0125,6.60427 -3.4002,11.03386 0.32086,5.49911 4.03746,11.56417 2.54458,16.11854 l -2.54458,0 c 1.17648,-9.94652 -4.19789,-13.33779 -3.39575,-22.91444 m -9.34054,-15.27183 c 6.23,-0.28075 6.94747,4.93315 10.18725,7.63814 0.46346,-3.79233 0.8066,-7.67825 5.09362,-7.63814 0.0401,2.79857 1.43941,4.2246 0.85562,7.63814 -17.94131,2.71836 -3.48487,21.68895 -7.64266,32.25045 -6.71128,-8.77451 -12.82541,-28.11943 -8.49383,-39.88859 m -15.27641,16.12745 c 2.2772,6.84046 -1.29235,22.37968 2.54904,27.99911 -13.98853,-3.25758 -9.93323,-20.40553 -2.54904,-27.99911 m 33.94858,48.37789 c 1.21658,-3.32887 3.48042,-5.58823 6.79149,-6.7959 1.37256,2.01872 3.05261,3.74332 4.238,5.94475 -4.46527,0.80213 -6.22108,2.10784 -11.02949,0.85115 m -42.4335,7.62924 c 5.0045,-0.94029 10.6106,-1.27006 15.28087,-2.54011 -2.72283,-6.07397 -19.83081,4.94652 -21.2212,-5.08913 2.21481,-0.70855 4.65244,2.56685 5.94033,0 -2.04547,-2.78966 -9.50542,-4.61675 -6.79149,-9.34492 3.09271,7.45098 15.4101,0.84225 22.07236,5.09804 -5.39665,-7.45989 -23.87274,-5.96256 -17.82545,-22.07219 5.13819,5.33423 13.34681,12.10784 22.91462,10.18717 -12.32184,-11.15419 -2.57132,-31.39929 -11.88512,-44.97772 4.13996,-0.73975 5.63284,1.15865 8.49383,1.69341 3.26206,14.13992 1.25224,30.99376 12.72737,38.19072 -1.46169,15.23173 -14.56339,18.81462 -12.72737,37.33958 -6.12305,-1.00713 -13.39137,-0.21391 -17.821,-0.84225 2.92337,-1.95187 2.64708,-4.76382 0.84225,-7.6426 m 83.17357,10.18271 c 0.58824,-19.81284 -14.82186,-23.64528 -16.96983,-40.72638 2.90109,-8.623 8.97957,-13.04813 7.63375,-23.77006 -1.14083,-9.20677 -12.25054,-19.69251 1.69342,-20.36541 -1.20768,0.19162 0.79323,4.22459 0,6.79144 13.09279,9.53208 -0.22728,32.42424 2.54904,43.27985 1.6845,-7.93671 7.0054,-12.23261 9.34053,-19.51425 1.08736,4.03297 -2.05438,9.55882 0.85117,10.17379 8.61861,-9.05971 -5.99381,-22.4287 -2.5535,-28.85918 2.37079,8.35116 9.60347,11.01159 10.18725,19.52763 0.73084,10.71747 -10.28974,12.27273 -11.02504,21.21658 5.25405,-3.23084 7.77189,-9.20232 14.42079,-11.03387 0.12478,3.28877 -3.82802,6.87611 -2.54904,8.4893 2.54013,0.19608 2.88772,-3.13725 5.09362,-0.85561 -0.44563,11.15864 -15.99834,7.20143 -18.67216,16.13191 6.38151,-2.25491 14.26482,-6.59982 21.21229,-3.39127 0.82888,3.93494 -5.07134,1.14973 -4.238,5.09358 2.75849,-0.50356 3.94834,0.57041 5.94033,0.84225 -3.70324,5.34314 -10.70418,7.3975 -11.87621,15.27184 0.004,1.97415 6.56423,4.54099 2.54013,5.10249 -5.52589,1.38146 -12.03218,1.42157 -13.57854,-3.40463 m -17.82545,3.40463 c 1.23441,-1.04278 1.14083,-3.39572 3.4002,-3.40463 -0.50357,1.7647 1.0517,5.57932 -0.85116,5.94474 -0.0891,-1.59982 -2.81643,-0.59715 -2.54904,-2.54011 m 6.79595,5.93137 c -1.66222,-1.71568 6.18543,-1.11854 5.93588,-4.24242 -0.85117,-8.67647 -13.38246,-9.082 -17.82546,-3.39127 0.54368,2.5 5.48133,3.43583 3.39575,5.94029 -11.00276,-2.41088 -2.98576,-16.56863 -4.24246,-26.3057 -2.24155,-4.55437 -5.95815,-7.61587 -9.33162,-11.03387 1.69787,-5.94029 2.60697,-12.66934 11.88512,-11.02941 2.92783,13.19073 9.35391,22.87878 17.821,30.54367 0.34759,6.43939 -0.8378,14.41176 0.85116,19.51871 -2.04992,0.14261 -7.55353,4.22015 -8.48937,0 m -31.40399,-2.5401 c 5.49024,-6.50179 -3.4314,-15.79323 0,-22.9189 4.51875,2.37522 9.4564,1.32799 15.27195,0.85562 -1.94743,9.54545 -0.93583,18.59625 0.84671,24.60338 -5.00004,1.84938 -11.78262,1.93405 -16.11866,-2.5401 M 344.2407,326.42159 c 0.86454,-10.0312 8.94838,-14.65686 11.0295,-21.22104 2.3084,-7.2549 -0.10695,-14.63012 9.34499,-14.42067 0.81106,0.009 5.11591,1.71568 5.08472,1.68895 9.54107,8.12834 -4.36278,14.95543 -6.79596,21.22549 -4.03301,10.4278 7.30844,23.67201 -2.53567,25.459 -2.25492,-1.22995 3.11054,-1.89394 1.69342,-5.09359 -4.67918,-1.05169 -8.54731,-7.40641 -11.88067,-0.8467 0.21391,1.31907 1.86276,0.59269 2.54904,0 -0.60161,3.14617 1.44832,3.63636 0.84671,6.78699 -4.4118,0.7041 -4.60788,-3.31551 -5.09808,-4.23797 -4.96439,2.97237 1.60429,6.09626 3.39575,7.63369 -1.9608,1.15419 -2.80751,3.40909 -6.78704,2.54456 1.01159,-7.76738 -1.47506,-12.27272 -0.84671,-19.51871 m 14.42525,40.73529 c 0.18717,-5.29412 5.42339,-7.42424 5.94924,-11.88503 -11.9787,0.76649 -7.19257,18.2754 -17.82545,20.37433 0.37434,-4.06417 -0.61943,-6.74688 -2.54904,-8.4893 -2.16579,0.0936 -1.68896,2.84314 -1.69787,5.09804 -6.8628,-2.69608 2.37078,-10.24956 -0.84671,-14.42959 -2.69165,1.5508 -4.04638,4.4385 -7.63821,5.08913 -1.33245,-1.22104 -2.95457,-2.13904 -3.39575,-4.23797 3.10609,-0.29412 6.70683,-0.0891 6.78704,-3.40464 l -7.6382,0 c -0.47683,-2.10784 -4.24692,-5.30748 -1.69788,-7.63814 1.1542,1.95633 1.49288,4.74153 5.08917,4.25133 0.20499,-1.21657 1.40375,-1.43939 1.71124,-2.55347 -4.27365,-1.8672 -1.07844,-6.03833 -0.85562,-10.17825 -2.04101,-0.3476 -1.84493,1.5508 -4.24691,0.8467 0.20053,-3.75669 1.8583,-6.06506 5.10253,-6.78699 3.91269,2.20143 9.68814,8.07487 5.93142,12.72727 8.09276,8.54278 15.41011,-3.00356 25.45921,-2.54456 0.61052,2.1123 -3.73444,3.48485 -0.84671,5.09358 1.93406,-2.91889 6.94301,-3.5918 7.6382,0.84225 2.79414,-3.85027 5.81556,-3.03922 11.0295,-1.69786 -0.66845,-2.97683 -2.37969,-2.78521 0,-5.08913 7.32627,4.99109 17.0144,2.6426 24.61696,4.25134 l 0,-5.94474 c 9.17119,-1.80927 12.65607,11.74242 7.64266,16.12745 -3.66313,-1.74243 -9.04196,-6.22995 -13.58745,-4.25134 3.98399,1.39483 7.90113,2.84759 8.48937,7.63815 -3.45814,1.06506 -4.40289,4.64795 -6.78704,6.79144 -3.90378,-6.56863 -9.44749,-11.48841 -15.28087,-16.12745 1.68005,7.37522 7.90559,10.2139 8.49383,18.66756 -2.95012,-0.10696 -4.93765,0.73975 -4.24692,4.25133 -7.87439,-0.0357 -6.91182,-12.51782 -7.63821,-16.96969 -4.66581,3.48039 -2.8075,11.08288 -2.54458,17.8164 -4.12659,0.16934 -2.97239,-4.95544 -6.7915,-5.09804 -1.17202,1.10517 -0.84225,3.68538 -0.84671,5.94919 -6.12304,-3.42691 -1.76026,-11.97415 0.84671,-16.12745 -10.49919,2.62924 -5.79327,16.03833 -2.54904,22.90999 -0.7754,2.31283 -1.58201,-2.25045 -4.24245,-0.84225 0.1114,1.11408 0.12923,6.14082 -0.85117,3.39572 -2.08112,-6.53743 -10.45908,-10.00445 -10.18279,-17.82531 m 16.12758,21.21212 c 1.328,-4.02406 3.17739,-7.56239 4.24246,-11.87166 2.50002,1.17202 3.44031,3.91266 5.93587,5.08913 2.24155,0.24955 2.79414,-1.17647 2.54904,-3.39572 4.73712,1.99198 11.32362,-0.5615 9.34054,-5.08913 0.99823,0.96702 2.99913,0.95366 5.08471,0.8467 l 0,-4.25133 c 4.238,3.9082 7.9457,-1.24332 8.48937,-5.93583 1.52408,-0.10695 1.79592,1.04278 3.39575,0.85561 0.9804,-1.01158 0.95812,-3.00356 0.84225,-5.09804 9.04642,3.05259 9.35391,-14.13101 4.25583,-18.66755 1.69342,-3.77451 7.09008,0.41889 9.32717,-1.69786 -0.46792,-4.33601 -3.25314,-6.35473 -5.08917,-9.33601 2.19699,-6.00713 6.13642,-10.28075 15.27642,-9.33601 -0.0802,-4.45187 -3.52944,-5.51693 -5.09808,-8.4893 0.27184,-1.14973 2.12568,-0.7041 3.39575,-0.85116 -0.67291,-4.69697 -3.779,-6.96524 -9.33163,-6.78699 5.82892,-18.89037 -9.51879,-36.99197 -16.12312,-51.76916 -2.66936,-0.12032 -2.91446,2.17915 -3.39575,4.24243 -6.06957,-1.17647 -5.95816,-10.51248 -2.54013,-14.42514 -10.08475,-1.3057 -11.39046,6.14974 -19.52333,6.78699 -6.7603,-0.96702 -5.73088,-14.21123 -11.88512,-16.96524 -5.43676,-2.43761 -12.77193,0.21836 -14.4297,7.62923 -0.0134,2.85651 1.16757,4.49644 2.54904,5.94474 -5.81556,4.91979 -17.64274,-4.79055 -17.821,6.78699 -3.08826,-3.40463 -14.1445,-3.87255 -16.12758,0.85116 0.32977,2.78521 2.48665,3.73886 3.40912,5.93137 -2.45991,0.10695 -5.56154,-0.46346 -6.80487,0.86007 0,2.82532 2.7674,2.90107 2.5535,5.94029 -4.27365,10.43672 -6.77813,22.64706 -13.583,30.54367 -0.87344,5.50356 1.68451,12.37968 -0.84225,14.42959 -3.16847,0.90909 -1.35473,-3.17736 -4.24691,-2.54456 -2.45992,9.34046 5.52143,15.32976 11.87621,18.67201 -1.55528,2.97683 -5.0045,4.03298 -5.09363,8.49376 1.50625,1.56863 2.4822,-0.37433 4.24692,-0.85116 0.26738,1.5107 -0.32532,7.96346 3.39575,8.48485 -1.89396,2.07219 -3.11946,4.80838 -2.54904,9.33155 6.03391,3.1016 7.2505,15.27629 16.12757,12.73173 -0.91355,5.73084 1.48843,8.12834 2.54459,11.88057 1.93852,0.23618 3.19075,-0.20054 3.39575,-1.69341 2.17025,0.0847 1.36364,3.15954 2.54458,4.24688 3.30662,-0.95365 6.14533,-2.35294 8.48937,-4.24688 5.13373,2.50892 9.42967,5.83779 12.72738,10.18271 0.13369,2.68271 -2.25047,2.83423 -1.68897,5.94474 3.32891,1.81373 6.27456,-3.06149 10.17834,-3.40463"
             style="fill:#000000;fill-opacity:1;fill-rule:evenodd;stroke:none"
             id="path112"
             inkscape:connector-curvature="0" /><path
             d="m 368.84874,384.98219 c 0.9804,2.7451 0.96257,-2.28164 0.85117,-3.39572 2.66044,-1.4082 3.46705,3.15508 4.24245,0.84224 -3.24423,-6.87165 -7.95015,-20.28074 2.54904,-22.90998 -2.60697,4.1533 -6.96975,12.70054 -0.84671,16.12745 0.004,-2.26381 -0.32531,-4.84403 0.84671,-5.94919 3.81911,0.14705 2.66491,5.26738 6.7915,5.09803 -0.26292,-6.72905 -2.12123,-14.336 2.54458,-17.81639 0.72639,4.45187 -0.23618,16.93404 7.63821,16.96969 -0.69073,-3.51158 1.2968,-4.35829 4.24692,-4.25133 -0.58824,-8.45366 -6.81378,-11.29234 -8.49383,-18.66756 5.83338,4.63904 11.37709,9.55882 15.28087,16.12745 2.38415,-2.14349 3.3289,-5.72638 6.78704,-6.79144 -0.58824,-4.79056 -4.50538,-6.24332 -8.48937,-7.63369 4.54549,-1.98307 9.92432,2.50445 13.58745,4.24688 5.01341,-4.38057 1.52853,-17.93672 -7.64266,-16.12745 l 0,5.94474 c -7.60256,-1.60874 -17.29069,0.73975 -24.61696,-4.25134 -2.37969,2.30838 -0.66845,2.1123 0,5.08913 -5.21394,-1.34136 -8.23536,-2.15241 -11.0295,1.69786 -0.69519,-4.43405 -5.70414,-3.76114 -7.6382,-0.84225 -2.88773,-1.60873 1.45723,-2.97683 0.84671,-5.09358 -10.0491,-0.459 -17.36645,11.08734 -25.45921,2.54456 3.75672,-4.6524 -2.01873,-10.52584 -5.93142,-12.72727 -3.24423,0.72193 -4.902,3.03476 -5.10253,6.78699 2.40198,0.7041 2.2059,-1.1943 4.24691,-0.84671 -0.22282,4.14439 -3.41803,8.31106 0.85562,10.17826 -0.30749,1.11854 -1.50625,1.34135 -1.71124,2.55347 -3.59629,0.4902 -3.93497,-2.29501 -5.08917,-4.25133 -2.54904,2.33066 1.22105,5.53476 1.69788,7.63814 l 7.6382,0 c -0.0802,3.31551 -3.68095,3.11052 -6.78704,3.40464 0.44118,2.09893 2.0633,3.01693 3.39575,4.24242 3.59183,-0.65508 4.94656,-3.54278 7.63821,-5.09358 3.21749,4.18003 -6.01609,11.73351 0.84671,14.42959 0.009,-2.2549 -0.46792,-5.00446 1.69787,-5.09804 1.92961,1.74242 2.92338,4.42513 2.54904,8.4893 10.63288,-2.09447 5.84675,-19.60784 17.82545,-20.37433 -0.52585,4.46524 -5.76207,6.59091 -5.94924,11.88503 -0.27629,7.82085 8.10167,11.28788 10.18279,17.82531"
             style="fill:#fcb131;fill-opacity:1;fill-rule:evenodd;stroke:none"
             id="path120"
             inkscape:connector-curvature="0" /><path
             d="m 361.21945,296.71125 c -0.51248,2.62032 -0.21836,6.01159 -3.40021,5.94474 -0.0624,-3.18182 -0.63726,-6.8672 3.40021,-5.94474 m -16.12758,49.22905 c 3.97953,0.86453 4.82624,-1.39037 6.78704,-2.54456 -1.79591,-1.53743 -8.36459,-4.66132 -3.39575,-7.63369 0.4902,0.918 0.68628,4.94207 5.09808,4.23797 0.59716,-3.15063 -1.45277,-3.64082 -0.84671,-6.78699 -0.69073,0.58824 -2.33513,1.31462 -2.54904,0 3.33336,-6.56417 7.20149,-0.20499 11.88067,0.84225 1.41712,3.19964 -3.94834,3.86363 -1.69342,5.09804 9.83965,-1.79145 -1.50179,-15.0312 2.53567,-25.46346 2.43318,-6.2656 16.33257,-13.09269 6.79596,-21.22103 0.0312,0.0223 -4.27366,-1.6845 -5.08917,-1.69341 -9.44749,-0.20499 -7.0366,7.16578 -9.34054,14.42068 -2.08112,6.56417 -10.16496,11.19429 -11.03395,21.22549 -0.6239,7.24153 1.86276,11.74688 0.85116,19.51871"
             style="fill:#fcb131;fill-opacity:1;fill-rule:evenodd;stroke:none"
             id="path128"
             inkscape:connector-curvature="0" /><path
             d="m 381.57611,341.69342 c -1.78255,-6.00713 -2.79414,-15.05793 -0.84225,-24.60784 -5.81556,0.47237 -10.75766,1.52406 -15.27642,-0.85116 -3.4314,7.12567 5.49024,16.41711 0,22.91889 4.33605,4.4697 11.12309,4.38949 16.11867,2.54011"
             style="fill:#fcb131;fill-opacity:1;fill-rule:evenodd;stroke:none"
             id="path140"
             inkscape:connector-curvature="0" /><path
             d="m 384.12515,297.56241 c 4.09094,-2.1123 6.28793,4.82175 2.5535,5.09358 -1.07844,-1.47059 -2.87881,-2.22816 -2.5535,-5.09358 m 7.64266,18.66756 c 5.31199,-2.71836 11.23895,3.89928 9.33608,8.49376 l -2.54904,0 c 0.57488,-5.67736 -5.52143,-4.65686 -6.78704,-8.49376 m 13.583,25.46345 c -1.68896,-5.1114 -0.50357,-13.07932 -0.85562,-19.52317 -8.46264,-7.66043 -14.88871,-17.35294 -17.81654,-30.54367 -9.27815,-1.63547 -10.18725,5.08913 -11.88512,11.02941 3.37346,3.41801 7.09007,6.48396 9.33162,11.03387 1.25669,9.73708 -6.76476,23.89483 4.24246,26.31016 2.08558,-2.50891 -2.85207,-3.44029 -3.39575,-5.94474 4.44299,-5.69073 16.97429,-5.28521 17.82545,3.39126 0.24956,3.12389 -7.5981,2.5312 -5.93587,4.24688 0.93138,4.22015 6.43944,0.14261 8.48937,0"
             style="fill:#fcb131;fill-opacity:1;fill-rule:evenodd;stroke:none"
             id="path144"
             inkscape:connector-curvature="0" /><path
             d="m 392.61453,338.30216 c 1.90287,-0.36542 0.3476,-4.18004 0.85562,-5.94474 -2.25937,0.009 -2.16579,2.36185 -3.4002,3.40463 -0.26739,1.94296 2.45545,0.94029 2.54458,2.54011"
             style="fill:#fcb131;fill-opacity:1;fill-rule:evenodd;stroke:none"
             id="path148"
             inkscape:connector-curvature="0" /><path
             d="m 421.46948,335.76205 c 4.02855,-0.5615 -2.53567,-3.12834 -2.54013,-5.1025 1.17648,-7.87433 8.17743,-9.92869 11.88067,-15.27183 -1.992,-0.27184 -3.1863,-1.34581 -5.94479,-0.84225 -0.83334,-3.94385 5.06688,-1.15864 4.238,-5.09358 -6.94301,-3.20856 -14.83078,1.13636 -21.21229,3.39127 2.67382,-8.93048 18.22653,-4.97327 18.67216,-16.13191 -2.2059,-2.28164 -2.55349,1.05169 -5.09362,0.85561 -1.27898,-1.60873 2.67382,-5.20053 2.54904,-8.4893 -6.64889,1.83155 -9.16674,7.80303 -14.42079,11.03387 0.7353,-8.94385 11.76034,-10.49911 11.02504,-21.21658 -0.57933,-8.51604 -7.812,-11.17647 -10.18725,-19.52763 -3.43585,6.43048 11.17211,19.79947 2.55796,28.85918 -2.91001,-0.61497 0.23173,-6.14082 -0.85562,-10.1738 -2.33514,7.28164 -7.65158,11.57754 -9.34054,19.51426 -2.77186,-10.85561 10.54375,-33.74777 -2.54904,-43.27985 0.79323,-2.56685 -1.20322,-6.59982 0,-6.79144 -13.94396,0.6729 -2.83425,11.15864 -1.68896,20.36541 1.34136,10.72193 -4.73712,15.14706 -7.63821,23.77006 2.14797,17.0811 17.55807,20.91354 16.96983,40.72638 1.54636,4.8262 8.05265,4.78609 13.57854,3.40463"
             style="fill:#fcb131;fill-opacity:1;fill-rule:evenodd;stroke:none"
             id="path160"
             inkscape:connector-curvature="0" /><path
             d="m 323.87958,329.81285 c 4.42517,0.62834 11.6935,-0.16488 17.821,0.8467 -1.84048,-18.52495 11.26568,-22.10784 12.72737,-37.33957 -11.47959,-7.19697 -9.46531,-24.05526 -12.72737,-38.19518 -2.86099,-0.53031 -4.35387,-2.43316 -8.49383,-1.69341 9.30934,13.58289 -0.44118,33.82353 11.88512,44.98217 -9.56781,1.91623 -17.77643,-4.85294 -22.91908,-10.19162 -6.04283,16.10963 12.4288,14.6123 17.82546,22.07665 -6.66227,-4.26025 -18.9752,2.35294 -22.06792,-5.10249 -2.71392,4.72816 4.74603,6.55525 6.7915,9.34491 -1.28789,2.56685 -3.72552,-0.70855 -5.94479,0 1.39039,10.04011 18.50282,-0.98039 21.22121,5.08913 -4.67027,1.27005 -10.27192,1.60428 -15.27642,2.54011 1.80483,2.87879 2.08112,5.69073 -0.84225,7.6426"
             style="fill:#fcb131;fill-opacity:1;fill-rule:evenodd;stroke:none"
             id="path168"
             inkscape:connector-curvature="0" /><path
             d="m 398.55486,324.72818 2.54458,0 c 1.90733,-4.59447 -4.01964,-11.21212 -9.33162,-8.49376 1.26115,3.8369 7.36191,2.8164 6.78704,8.49376"
             style="fill:#000000;fill-opacity:1;fill-rule:evenodd;stroke:none"
             id="path176"
             inkscape:connector-curvature="0" /><path
             d="m 378.18482,313.69431 c -1.18985,-2.20143 -2.86544,-3.92157 -4.238,-5.94028 -3.31108,1.20766 -5.57937,3.46702 -6.79596,6.79144 4.81288,1.25668 6.56423,-0.0446 11.03396,-0.85116"
             style="fill:#fcb131;fill-opacity:1;fill-rule:evenodd;stroke:none"
             id="path184"
             inkscape:connector-curvature="0" /><path
             d="m 357.81924,302.65599 c 3.17739,0.0668 2.88772,-3.32442 3.40021,-5.94474 -4.03747,-0.92246 -3.46706,2.76292 -3.40021,5.94474"
             style="fill:#000000;fill-opacity:1;fill-rule:evenodd;stroke:none"
             id="path196"
             inkscape:connector-curvature="0" /><path
             d="m 386.67865,302.65599 c 3.73443,-0.27184 1.53745,-7.20588 -2.5535,-5.09358 -0.32531,2.86542 1.47506,3.62299 2.5535,5.09358"
             style="fill:#000000;fill-opacity:1;fill-rule:evenodd;stroke:none"
             id="path200"
             inkscape:connector-curvature="0" /><path
             d="m 356.97699,289.92872 c 4.15779,-10.5615 -10.30311,-29.53654 7.63821,-32.25044 0.58378,-3.41355 -0.81106,-4.83958 -0.85117,-7.63815 -4.29148,-0.0401 -4.63462,3.84581 -5.09808,7.63815 -3.23977,-2.705 -3.95725,-7.9189 -10.18725,-7.63815 -4.33158,11.76916 1.78255,31.11408 8.49829,39.88859"
             style="fill:#fcb131;fill-opacity:1;fill-rule:evenodd;stroke:none"
             id="path212"
             inkscape:connector-curvature="0" /><path
             d="m 361.21945,288.2264 2.54458,0 c 1.49289,-4.55437 -2.22372,-10.61943 -2.54458,-16.11854 0.3877,-4.42959 4.72375,-4.8975 3.39575,-11.03387 -3.36456,0.32977 -4.61679,2.7451 -6.79596,4.23797 -0.80214,9.57665 4.57669,12.96792 3.40021,22.91444"
             style="fill:#fcb131;fill-opacity:1;fill-rule:evenodd;stroke:none"
             id="path224"
             inkscape:connector-curvature="0" /><path
             d="m 380.72941,288.2264 c 1.0517,-6.45722 8.29775,-22.9902 0,-25.46346 0.90019,7.34403 1.36365,14.86186 0,25.46346"
             style="fill:#fcb131;fill-opacity:1;fill-rule:evenodd;stroke:none"
             id="path228"
             inkscape:connector-curvature="0" /><path
             d="m 385.82748,287.38415 c 13.90385,-5.459 3.38684,-22.59358 3.38684,-35.65062 -3.18185,-0.6328 -1.84939,3.23975 -4.24692,3.39572 -1.91178,-1.19875 -0.68628,-5.52585 -4.238,-5.08467 l 0,9.32264 c 13.54289,2.30392 3.2888,16.12745 5.09808,28.01693"
             style="fill:#fcb131;fill-opacity:1;fill-rule:evenodd;stroke:none"
             id="path236"
             inkscape:connector-curvature="0" /><path
             d="m 375.64469,278.89485 c -1.13637,-12.02317 5.39666,-36.27005 -5.09808,-43.28431 -3.53835,-0.72193 -4.00181,1.6533 -6.78704,1.70232 -1.6444,6.68894 4.44299,12.26381 5.08917,19.5098 0.77095,8.58734 -3.54727,16.13191 0,22.92335 3.70769,-0.7353 3.77454,-0.19608 6.79595,-0.85116"
             style="fill:#eb0029;fill-opacity:1;fill-rule:evenodd;stroke:none"
             id="path244"
             inkscape:connector-curvature="0" /><path
             d="m 335.75133,294.16669 c -3.84139,-5.61943 -0.27629,-21.15864 -2.54904,-27.99911 -7.38419,7.59359 -11.43948,24.74153 2.54904,27.99911"
             style="fill:#fcb131;fill-opacity:1;fill-rule:evenodd;stroke:none"
             id="path320"
             inkscape:connector-curvature="0" /></g><use
           x="0"
           y="0"
           xlink:href="#g5122"
           id="use5186"
           transform="translate(-187.06825,0.27785498)"
           width="100%"
           height="100%" /><use
           x="0"
           y="0"
           xlink:href="#g5122"
           id="use5188"
           transform="translate(-92.815543,-123.63237)"
           width="100%"
           height="100%" /></g></g></g></svg>